<?xml version="1.0" encoding="UTF-8" standalone="no"?>
<!DOCTYPE svg PUBLIC "-//W3C//DTD SVG 1.1//EN"
 "http://www.w3.org/Graphics/SVG/1.1/DTD/svg11.dtd">
<!-- Generated by graphviz version 2.40.1 (20161225.0304)
 -->
<!-- Title: snakemake_dag Pages: 1 -->
<svg width="288pt" height="476pt"
 viewBox="0.00 0.00 287.50 476.00" xmlns="http://www.w3.org/2000/svg" xmlns:xlink="http://www.w3.org/1999/xlink">
<g id="graph0" class="graph" transform="scale(1 1) rotate(0) translate(4 472)">
<title>snakemake_dag</title>
<polygon fill="#ffffff" stroke="transparent" points="-4,4 -4,-472 283.5,-472 283.5,4 -4,4"/>
<!-- 0 -->
<g id="node1" class="node">
<title>0</title>
<path fill="none" stroke="#568ad8" stroke-width="2" d="M140.5,-36C140.5,-36 110.5,-36 110.5,-36 104.5,-36 98.5,-30 98.5,-24 98.5,-24 98.5,-12 98.5,-12 98.5,-6 104.5,0 110.5,0 110.5,0 140.5,0 140.5,0 146.5,0 152.5,-6 152.5,-12 152.5,-12 152.5,-24 152.5,-24 152.5,-30 146.5,-36 140.5,-36"/>
<text text-anchor="middle" x="125.5" y="-15.5" font-family="sans" font-size="10.00" fill="#000000">all</text>
</g>
<!-- 1 -->
<g id="node2" class="node">
<title>1</title>
<path fill="none" stroke="#59d856" stroke-width="2" d="M174,-108C174,-108 77,-108 77,-108 71,-108 65,-102 65,-96 65,-96 65,-84 65,-84 65,-78 71,-72 77,-72 77,-72 174,-72 174,-72 180,-72 186,-78 186,-84 186,-84 186,-96 186,-96 186,-102 180,-108 174,-108"/>
<text text-anchor="middle" x="125.5" y="-87.5" font-family="sans" font-size="10.00" fill="#000000">intersect_and_spread</text>
</g>
<!-- 1&#45;&gt;0 -->
<g id="edge1" class="edge">
<title>1&#45;&gt;0</title>
<path fill="none" stroke="#c0c0c0" stroke-width="2" d="M125.5,-71.8314C125.5,-64.131 125.5,-54.9743 125.5,-46.4166"/>
<polygon fill="#c0c0c0" stroke="#c0c0c0" stroke-width="2" points="129.0001,-46.4132 125.5,-36.4133 122.0001,-46.4133 129.0001,-46.4132"/>
</g>
<!-- 2 -->
<g id="node3" class="node">
<title>2</title>
<path fill="none" stroke="#56c1d8" stroke-width="2" d="M106.5,-180C106.5,-180 38.5,-180 38.5,-180 32.5,-180 26.5,-174 26.5,-168 26.5,-168 26.5,-156 26.5,-156 26.5,-150 32.5,-144 38.5,-144 38.5,-144 106.5,-144 106.5,-144 112.5,-144 118.5,-150 118.5,-156 118.5,-156 118.5,-168 118.5,-168 118.5,-174 112.5,-180 106.5,-180"/>
<text text-anchor="middle" x="72.5" y="-159.5" font-family="sans" font-size="10.00" fill="#000000">makeExonBeds</text>
</g>
<!-- 2&#45;&gt;1 -->
<g id="edge3" class="edge">
<title>2&#45;&gt;1</title>
<path fill="none" stroke="#c0c0c0" stroke-width="2" d="M85.8741,-143.8314C91.9162,-135.6232 99.1763,-125.7606 105.8221,-116.7323"/>
<polygon fill="#c0c0c0" stroke="#c0c0c0" stroke-width="2" points="108.8363,-118.5415 111.9458,-108.4133 103.1989,-114.3918 108.8363,-118.5415"/>
</g>
<!-- 3 -->
<g id="node4" class="node">
<title>3</title>
<path fill="none" stroke="#d85656" stroke-width="2" d="M208,-180C208,-180 149,-180 149,-180 143,-180 137,-174 137,-168 137,-168 137,-156 137,-156 137,-150 143,-144 149,-144 149,-144 208,-144 208,-144 214,-144 220,-150 220,-156 220,-156 220,-168 220,-168 220,-174 214,-180 208,-180"/>
<text text-anchor="middle" x="178.5" y="-159.5" font-family="sans" font-size="10.00" fill="#000000">calculate_cov</text>
</g>
<!-- 3&#45;&gt;1 -->
<g id="edge2" class="edge">
<title>3&#45;&gt;1</title>
<path fill="none" stroke="#c0c0c0" stroke-width="2" d="M165.1259,-143.8314C159.0838,-135.6232 151.8237,-125.7606 145.1779,-116.7323"/>
<polygon fill="#c0c0c0" stroke="#c0c0c0" stroke-width="2" points="147.8011,-114.3918 139.0542,-108.4133 142.1637,-118.5415 147.8011,-114.3918"/>
</g>
<!-- 4 -->
<g id="node5" class="node">
<title>4</title>
<path fill="none" stroke="#88d856" stroke-width="2" d="M133,-252C133,-252 12,-252 12,-252 6,-252 0,-246 0,-240 0,-240 0,-228 0,-228 0,-222 6,-216 12,-216 12,-216 133,-216 133,-216 139,-216 145,-222 145,-228 145,-228 145,-240 145,-240 145,-246 139,-252 133,-252"/>
<text text-anchor="middle" x="72.5" y="-231.5" font-family="sans" font-size="10.00" fill="#000000">aggregate_salmon_counts</text>
</g>
<!-- 4&#45;&gt;2 -->
<g id="edge4" class="edge">
<title>4&#45;&gt;2</title>
<path fill="none" stroke="#c0c0c0" stroke-width="2" d="M72.5,-215.8314C72.5,-208.131 72.5,-198.9743 72.5,-190.4166"/>
<polygon fill="#c0c0c0" stroke="#c0c0c0" stroke-width="2" points="76.0001,-190.4132 72.5,-180.4133 69.0001,-190.4133 76.0001,-190.4132"/>
</g>
<!-- 5 -->
<g id="node6" class="node">
<title>5</title>
<path fill="none" stroke="#bed856" stroke-width="2" d="M230.5,-324C230.5,-324 186.5,-324 186.5,-324 180.5,-324 174.5,-318 174.5,-312 174.5,-312 174.5,-300 174.5,-300 174.5,-294 180.5,-288 186.5,-288 186.5,-288 230.5,-288 230.5,-288 236.5,-288 242.5,-294 242.5,-300 242.5,-300 242.5,-312 242.5,-312 242.5,-318 236.5,-324 230.5,-324"/>
<text text-anchor="middle" x="208.5" y="-303.5" font-family="sans" font-size="10.00" fill="#000000">sort_bams</text>
</g>
<!-- 5&#45;&gt;3 -->
<g id="edge6" class="edge">
<title>5&#45;&gt;3</title>
<path fill="none" stroke="#c0c0c0" stroke-width="2" d="M203.3483,-287.5908C200.5333,-277.1903 197.1012,-263.9226 194.5,-252 189.9966,-231.3586 185.8502,-207.8473 182.9073,-190.0326"/>
<polygon fill="#c0c0c0" stroke="#c0c0c0" stroke-width="2" points="186.3375,-189.3198 181.2791,-180.0105 179.4281,-190.4424 186.3375,-189.3198"/>
</g>
<!-- 6 -->
<g id="node7" class="node">
<title>6</title>
<path fill="none" stroke="#56d8c1" stroke-width="2" d="M267.5,-252C267.5,-252 215.5,-252 215.5,-252 209.5,-252 203.5,-246 203.5,-240 203.5,-240 203.5,-228 203.5,-228 203.5,-222 209.5,-216 215.5,-216 215.5,-216 267.5,-216 267.5,-216 273.5,-216 279.5,-222 279.5,-228 279.5,-228 279.5,-240 279.5,-240 279.5,-246 273.5,-252 267.5,-252"/>
<text text-anchor="middle" x="241.5" y="-231.5" font-family="sans" font-size="10.00" fill="#000000">index_bams</text>
</g>
<!-- 5&#45;&gt;6 -->
<g id="edge9" class="edge">
<title>5&#45;&gt;6</title>
<path fill="none" stroke="#c0c0c0" stroke-width="2" d="M216.8273,-287.8314C220.473,-279.8771 224.8309,-270.369 228.8627,-261.5723"/>
<polygon fill="#c0c0c0" stroke="#c0c0c0" stroke-width="2" points="232.0757,-262.9622 233.0606,-252.4133 225.7123,-260.0456 232.0757,-262.9622"/>
</g>
<!-- 6&#45;&gt;3 -->
<g id="edge5" class="edge">
<title>6&#45;&gt;3</title>
<path fill="none" stroke="#c0c0c0" stroke-width="2" d="M225.6024,-215.8314C218.2722,-207.454 209.434,-197.3531 201.4031,-188.1749"/>
<polygon fill="#c0c0c0" stroke="#c0c0c0" stroke-width="2" points="203.8307,-185.6343 194.6116,-180.4133 198.5627,-190.2438 203.8307,-185.6343"/>
</g>
<!-- 7 -->
<g id="node8" class="node">
<title>7</title>
<path fill="none" stroke="#d8bc56" stroke-width="2" d="M97.5,-324C97.5,-324 47.5,-324 47.5,-324 41.5,-324 35.5,-318 35.5,-312 35.5,-312 35.5,-300 35.5,-300 35.5,-294 41.5,-288 47.5,-288 47.5,-288 97.5,-288 97.5,-288 103.5,-288 109.5,-294 109.5,-300 109.5,-300 109.5,-312 109.5,-312 109.5,-318 103.5,-324 97.5,-324"/>
<text text-anchor="middle" x="72.5" y="-303.5" font-family="sans" font-size="10.00" fill="#000000">run_salmon</text>
</g>
<!-- 7&#45;&gt;4 -->
<g id="edge7" class="edge">
<title>7&#45;&gt;4</title>
<path fill="none" stroke="#c0c0c0" stroke-width="2" d="M72.5,-287.8314C72.5,-280.131 72.5,-270.9743 72.5,-262.4166"/>
<polygon fill="#c0c0c0" stroke="#c0c0c0" stroke-width="2" points="76.0001,-262.4132 72.5,-252.4133 69.0001,-262.4133 76.0001,-262.4132"/>
</g>
<!-- 8 -->
<g id="node9" class="node">
<title>8</title>
<path fill="none" stroke="#d88d56" stroke-width="2" d="M232,-396C232,-396 185,-396 185,-396 179,-396 173,-390 173,-384 173,-384 173,-372 173,-372 173,-366 179,-360 185,-360 185,-360 232,-360 232,-360 238,-360 244,-366 244,-372 244,-372 244,-384 244,-384 244,-390 238,-396 232,-396"/>
<text text-anchor="middle" x="208.5" y="-375.5" font-family="sans" font-size="10.00" fill="#000000">align_STAR</text>
</g>
<!-- 8&#45;&gt;5 -->
<g id="edge8" class="edge">
<title>8&#45;&gt;5</title>
<path fill="none" stroke="#c0c0c0" stroke-width="2" d="M208.5,-359.8314C208.5,-352.131 208.5,-342.9743 208.5,-334.4166"/>
<polygon fill="#c0c0c0" stroke="#c0c0c0" stroke-width="2" points="212.0001,-334.4132 208.5,-324.4133 205.0001,-334.4133 212.0001,-334.4132"/>
</g>
<!-- 9 -->
<g id="node10" class="node">
<title>9</title>
<path fill="none" stroke="#56d88a" stroke-width="2" d="M245.5,-468C245.5,-468 171.5,-468 171.5,-468 165.5,-468 159.5,-462 159.5,-456 159.5,-456 159.5,-444 159.5,-444 159.5,-438 165.5,-432 171.5,-432 171.5,-432 245.5,-432 245.5,-432 251.5,-432 257.5,-438 257.5,-444 257.5,-444 257.5,-456 257.5,-456 257.5,-462 251.5,-468 245.5,-468"/>
<text text-anchor="middle" x="208.5" y="-447.5" font-family="sans" font-size="10.00" fill="#000000">build_STARindex</text>
</g>
<!-- 9&#45;&gt;8 -->
<g id="edge10" class="edge">
<title>9&#45;&gt;8</title>
<path fill="none" stroke="#c0c0c0" stroke-width="2" d="M208.5,-431.8314C208.5,-424.131 208.5,-414.9743 208.5,-406.4166"/>
<polygon fill="#c0c0c0" stroke="#c0c0c0" stroke-width="2" points="212.0001,-406.4132 208.5,-396.4133 205.0001,-406.4133 212.0001,-406.4132"/>
</g>
</g>
</svg>
